<svg xmlns="http://www.w3.org/2000/svg" viewBox="0 0 64 64" width="64" height="64">
  <defs>
    <linearGradient id="grad1" x1="0%" y1="0%" x2="100%" y2="100%">
      <stop offset="0%" style="stop-color:#3B82F6;stop-opacity:1" />
      <stop offset="100%" style="stop-color:#1E40AF;stop-opacity:1" />
    </linearGradient>
  </defs>
  
  <!-- Background circle -->
  <circle cx="32" cy="32" r="30" fill="url(#grad1)" stroke="none"/>
  
  <!-- Test tube/flask shape -->
  <path d="M24 12 L24 26 L20 38 L20 46 C20 48.2 21.8 50 24 50 L40 50 C42.2 50 44 48.2 44 46 L44 38 L40 26 L40 12 Z" 
        fill="white" opacity="0.9"/>
  
  <!-- Test tube neck -->
  <rect x="26" y="8" width="12" height="8" rx="2" fill="white" opacity="0.8"/>
  
  <!-- Sample liquid -->
  <path d="M24 30 L24 44 C24 45.1 24.9 46 26 46 L38 46 C39.1 46 40 45.1 40 44 L40 30 L36 40 L28 40 Z" 
        fill="#10B981" opacity="0.7"/>
  
  <!-- Measurement lines -->
  <line x1="22" y1="32" x2="26" y2="32" stroke="white" stroke-width="1" opacity="0.6"/>
  <line x1="22" y1="36" x2="26" y2="36" stroke="white" stroke-width="1" opacity="0.6"/>
  <line x1="22" y1="40" x2="26" y2="40" stroke="white" stroke-width="1" opacity="0.6"/>
  
  <!-- AI accent -->
  <circle cx="48" cy="16" r="8" fill="#F59E0B" opacity="0.9"/>
  <text x="48" y="21" text-anchor="middle" fill="white" font-family="Arial, sans-serif" font-size="8" font-weight="bold">AI</text>
</svg>